<svg width="25" height="26" viewBox="0 0 25 26" fill="none" xmlns="http://www.w3.org/2000/svg">
<g clip-path="url(#clip0_5_64)">
<path d="M3.12475 3.625H21.8748C22.151 3.625 22.416 3.73475 22.6113 3.9301C22.8067 4.12545 22.9164 4.3904 22.9164 4.66667V21.3333C22.9164 21.6096 22.8067 21.8746 22.6113 22.0699C22.416 22.2653 22.151 22.375 21.8748 22.375H3.12475C2.84848 22.375 2.58353 22.2653 2.38818 22.0699C2.19283 21.8746 2.08308 21.6096 2.08308 21.3333V4.66667C2.08308 4.3904 2.19283 4.12545 2.38818 3.9301C2.58353 3.73475 2.84848 3.625 3.12475 3.625ZM12.5623 12.6698L5.88308 6.99792L4.53413 8.58542L12.5758 15.4135L20.4727 8.58021L19.1102 7.00417L12.5633 12.6698H12.5623Z" fill="white"/>
</g>
<defs>
<clipPath id="clip0_5_64">
<rect width="25" height="25" fill="white" transform="translate(-0.000244141 0.5)"/>
</clipPath>
</defs>
</svg>
