<svg width="18" height="26" viewBox="0 0 18 26" fill="none" xmlns="http://www.w3.org/2000/svg">
<path fill-rule="evenodd" clip-rule="evenodd" d="M4.4397 1.35234C7.17079 -0.234544 10.5277 -0.206807 13.2332 1.42499C15.9121 3.09003 17.5402 6.06162 17.525 9.25823C17.4627 12.4339 15.7169 15.419 13.5346 17.7266C12.275 19.0645 10.866 20.2475 9.33626 21.2515C9.17871 21.3426 9.00614 21.4036 8.82706 21.4315C8.6547 21.4242 8.48685 21.3732 8.33864 21.2833C6.00322 19.7747 3.95434 17.849 2.29058 15.5989C0.898388 13.7207 0.107442 11.4514 0.0251479 9.09945C0.0233406 5.89671 1.70861 2.93922 4.4397 1.35234ZM6.01834 10.425C6.47774 11.5576 7.56212 12.2964 8.76516 12.2964C9.55329 12.3021 10.3109 11.9864 10.8692 11.4197C11.4275 10.853 11.74 10.0824 11.7372 9.27954C11.7414 8.0541 11.02 6.94694 9.90974 6.47501C8.79949 6.00309 7.51945 6.25948 6.66729 7.12448C5.81512 7.98949 5.55893 9.29247 6.01834 10.425Z" fill="white"/>
<ellipse opacity="0.4" cx="8.77457" cy="23.9313" rx="6.25004" ry="1.25001" fill="white"/>
</svg>
