<svg width="26" height="26" viewBox="0 0 26 26" fill="none" xmlns="http://www.w3.org/2000/svg">
<g clip-path="url(#clip0_5_61)">
<path d="M22.2767 17.6042V21.2875C22.2769 21.5512 22.1769 21.8052 21.9971 21.9981C21.8173 22.1911 21.5711 22.3086 21.308 22.3271C20.8528 22.3583 20.4809 22.375 20.1934 22.375C10.9882 22.375 3.52673 14.9135 3.52673 5.70833C3.52673 5.42083 3.54236 5.04896 3.57465 4.59375C3.59311 4.33067 3.71067 4.08439 3.90361 3.90459C4.09655 3.7248 4.35051 3.62488 4.61423 3.625H8.29757C8.42677 3.62487 8.55142 3.67277 8.64728 3.7594C8.74315 3.84602 8.8034 3.96519 8.81632 4.09375C8.84027 4.33333 8.86215 4.52396 8.88298 4.66875C9.09 6.11346 9.51424 7.51858 10.1413 8.83646C10.2403 9.04479 10.1757 9.29375 9.98819 9.42708L7.74027 11.0333C9.11471 14.2359 11.6669 16.7881 14.8694 18.1625L16.4736 15.9187C16.5392 15.8271 16.6348 15.7613 16.7439 15.733C16.853 15.7046 16.9686 15.7154 17.0705 15.7635C18.3882 16.3894 19.793 16.8126 21.2372 17.0187C21.3819 17.0396 21.5726 17.0625 21.8101 17.0854C21.9384 17.0986 22.0574 17.1589 22.1438 17.2548C22.2302 17.3506 22.2779 17.4751 22.2778 17.6042H22.2767Z" fill="white"/>
</g>
<defs>
<clipPath id="clip0_5_61">
<rect width="25" height="25" fill="white" transform="translate(0.401733 0.5)"/>
</clipPath>
</defs>
</svg>
